<?xml version="1.0" standalone="no"?>
<svg xmlns:xlink="http://www.w3.org/1999/xlink" id="wave" style="transform:rotate(0deg); transition: 0.3s" viewBox="0 0 1440 180" version="1.1" xmlns="http://www.w3.org/2000/svg"><defs><linearGradient id="sw-gradient-0" x1="0" x2="0" y1="1" y2="0"><stop stop-color="rgba(255, 255, 255, 1)" offset="0%"/><stop stop-color="rgba(255, 255, 255, 1)" offset="100%"/></linearGradient></defs><path style="transform:translate(0, 0px); opacity:1" fill="#f09c7a" d="M0,54L48,66C96,78,192,102,288,99C384,96,480,66,576,54C672,42,768,48,864,69C960,90,1056,126,1152,132C1248,138,1344,114,1440,87C1536,60,1632,30,1728,39C1824,48,1920,96,2016,96C2112,96,2208,48,2304,48C2400,48,2496,96,2592,105C2688,114,2784,84,2880,69C2976,54,3072,54,3168,54C3264,54,3360,54,3456,51C3552,48,3648,42,3744,45C3840,48,3936,60,4032,69C4128,78,4224,84,4320,84C4416,84,4512,78,4608,63C4704,48,4800,24,4896,39C4992,54,5088,108,5184,135C5280,162,5376,162,5472,141C5568,120,5664,78,5760,72C5856,66,5952,96,6048,90C6144,84,6240,42,6336,45C6432,48,6528,96,6624,120C6720,144,6816,144,6864,144L6912,144L6912,180L6864,180C6816,180,6720,180,6624,180C6528,180,6432,180,6336,180C6240,180,6144,180,6048,180C5952,180,5856,180,5760,180C5664,180,5568,180,5472,180C5376,180,5280,180,5184,180C5088,180,4992,180,4896,180C4800,180,4704,180,4608,180C4512,180,4416,180,4320,180C4224,180,4128,180,4032,180C3936,180,3840,180,3744,180C3648,180,3552,180,3456,180C3360,180,3264,180,3168,180C3072,180,2976,180,2880,180C2784,180,2688,180,2592,180C2496,180,2400,180,2304,180C2208,180,2112,180,2016,180C1920,180,1824,180,1728,180C1632,180,1536,180,1440,180C1344,180,1248,180,1152,180C1056,180,960,180,864,180C768,180,672,180,576,180C480,180,384,180,288,180C192,180,96,180,48,180L0,180Z"/></svg>